name ./resultDataOpenSim/trcMotMarkerGrf/sub09/grf-14-02.mot
datacolumns 19
datarows 25
range 0.49600000 0.59200000
endheader

                time	     ground_force_vx	     ground_force_vy	     ground_force_vz	     ground_force_px	     ground_force_py	     ground_force_pz	   l_ground_force_vx	   l_ground_force_vy	   l_ground_force_vz	   l_ground_force_px	   l_ground_force_py	   l_ground_force_pz	     ground_torque_x	     ground_torque_y	     ground_torque_z	   l_ground_torque_x	   l_ground_torque_y	   l_ground_torque_z	
          0.49600000	         32.23945333	        446.54859439	        -10.57599091	         -0.66122534	          0.00000000	          0.09254723	          0.00000000	          0.00000000	          0.00000000	          0.00000000	          0.00000000	          0.00000000	          0.00000000	          4.90624236	          0.00000000	          0.00000000	          0.00000000	          0.00000000	
          0.50000000	         36.95684761	        457.06762650	         -7.83615983	         -0.66120608	          0.00000000	          0.09238295	          0.00000000	          0.00000000	          0.00000000	          0.00000000	          0.00000000	          0.00000000	          0.00000000	          5.63917367	          0.00000000	          0.00000000	          0.00000000	          0.00000000	
          0.50400000	         41.74127694	        467.94260605	         -5.45699438	         -0.66097685	          0.00000000	          0.09236983	          0.00000000	          0.00000000	          0.00000000	          0.00000000	          0.00000000	          0.00000000	          0.00000000	          6.34763915	          0.00000000	          0.00000000	          0.00000000	          0.00000000	
          0.50800000	         46.36724418	        479.25284244	         -4.05984056	         -0.66055045	          0.00000000	          0.09248728	          0.00000000	          0.00000000	          0.00000000	          0.00000000	          0.00000000	          0.00000000	          0.00000000	          6.92327047	          0.00000000	          0.00000000	          0.00000000	          0.00000000	
          0.51200000	         50.62286577	        491.13417109	         -4.12734257	         -0.65999756	          0.00000000	          0.09268121	          0.00000000	          0.00000000	          0.00000000	          0.00000000	          0.00000000	          0.00000000	          0.00000000	          7.27509936	          0.00000000	          0.00000000	          0.00000000	          0.00000000	
          0.51600000	         54.36046431	        503.60374638	         -5.90497837	         -0.65936974	          0.00000000	          0.09291556	          0.00000000	          0.00000000	          0.00000000	          0.00000000	          0.00000000	          0.00000000	          0.00000000	          7.34960702	          0.00000000	          0.00000000	          0.00000000	          0.00000000	
          0.52000000	         57.52197289	        516.46946725	         -9.31924928	         -0.65855848	          0.00000000	          0.09320669	          0.00000000	          0.00000000	          0.00000000	          0.00000000	          0.00000000	          0.00000000	          0.00000000	          7.14316337	          0.00000000	          0.00000000	          0.00000000	          0.00000000	
          0.52400000	         60.12810461	        529.50004267	        -13.95168077	         -0.65740316	          0.00000000	          0.09356385	          0.00000000	          0.00000000	          0.00000000	          0.00000000	          0.00000000	          0.00000000	          0.00000000	          6.70418039	          0.00000000	          0.00000000	          0.00000000	          0.00000000	
          0.52800000	         62.30047976	        542.67560578	        -19.11765132	         -0.65593341	          0.00000000	          0.09392336	          0.00000000	          0.00000000	          0.00000000	          0.00000000	          0.00000000	          0.00000000	          0.00000000	          6.12435296	          0.00000000	          0.00000000	          0.00000000	          0.00000000	
          0.53200000	         64.29168530	        556.21331364	        -24.02823995	         -0.65439373	          0.00000000	          0.09417721	          0.00000000	          0.00000000	          0.00000000	          0.00000000	          0.00000000	          0.00000000	          0.00000000	          5.52067708	          0.00000000	          0.00000000	          0.00000000	          0.00000000	
          0.53600000	         66.42262722	        570.34334003	        -27.95753961	         -0.65304213	          0.00000000	          0.09424839	          0.00000000	          0.00000000	          0.00000000	          0.00000000	          0.00000000	          0.00000000	          0.00000000	          5.01202092	          0.00000000	          0.00000000	          0.00000000	          0.00000000	
          0.54000000	         68.95819626	        585.07378229	        -30.36194243	         -0.65192778	          0.00000000	          0.09413227	          0.00000000	          0.00000000	          0.00000000	          0.00000000	          0.00000000	          0.00000000	          0.00000000	          4.69523113	          0.00000000	          0.00000000	          0.00000000	          0.00000000	
          0.54400000	         72.04192632	        600.18107458	        -30.96080250	         -0.65090106	          0.00000000	          0.09387935	          0.00000000	          0.00000000	          0.00000000	          0.00000000	          0.00000000	          0.00000000	          0.00000000	          4.62577883	          0.00000000	          0.00000000	          0.00000000	          0.00000000	
          0.54800000	         75.71510213	        615.44839105	        -29.78269344	         -0.64982265	          0.00000000	          0.09354383	          0.00000000	          0.00000000	          0.00000000	          0.00000000	          0.00000000	          0.00000000	          0.00000000	          4.80691434	          0.00000000	          0.00000000	          0.00000000	          0.00000000	
          0.55200000	         79.94626874	        630.88950288	        -27.15243774	         -0.64872799	          0.00000000	          0.09313632	          0.00000000	          0.00000000	          0.00000000	          0.00000000	          0.00000000	          0.00000000	          0.00000000	          5.18949024	          0.00000000	          0.00000000	          0.00000000	          0.00000000	
          0.55600000	         84.62736797	        646.66748693	        -23.62219108	         -0.64775819	          0.00000000	          0.09263969	          0.00000000	          0.00000000	          0.00000000	          0.00000000	          0.00000000	          0.00000000	          0.00000000	          5.68239511	          0.00000000	          0.00000000	          0.00000000	          0.00000000	
          0.56000000	         89.56752824	        662.78823895	        -19.87058657	         -0.64694948	          0.00000000	          0.09207260	          0.00000000	          0.00000000	          0.00000000	          0.00000000	          0.00000000	          0.00000000	          0.00000000	          6.17142479	          0.00000000	          0.00000000	          0.00000000	          0.00000000	
          0.56400000	         94.52897173	        678.95366530	        -16.57641945	         -0.64615530	          0.00000000	          0.09150824	          0.00000000	          0.00000000	          0.00000000	          0.00000000	          0.00000000	          0.00000000	          0.00000000	          6.54273569	          0.00000000	          0.00000000	          0.00000000	          0.00000000	
          0.56800000	         99.30712453	        694.75076376	        -14.28176098	         -0.64519678	          0.00000000	          0.09102054	          0.00000000	          0.00000000	          0.00000000	          0.00000000	          0.00000000	          0.00000000	          0.00000000	          6.70597000	          0.00000000	          0.00000000	          0.00000000	          0.00000000	
          0.57200000	        103.80372058	        709.92916755	        -13.28674985	         -0.64404513	          0.00000000	          0.09062804	          0.00000000	          0.00000000	          0.00000000	          0.00000000	          0.00000000	          0.00000000	          0.00000000	          6.61211620	          0.00000000	          0.00000000	          0.00000000	          0.00000000	
          0.57600000	        108.04061246	        724.44510059	        -13.60657538	         -0.64282483	          0.00000000	          0.09029464	          0.00000000	          0.00000000	          0.00000000	          0.00000000	          0.00000000	          0.00000000	          0.00000000	          6.26242938	          0.00000000	          0.00000000	          0.00000000	          0.00000000	
          0.58000000	        112.11999731	        738.26464414	        -14.99159174	         -0.64165599	          0.00000000	          0.08997852	          0.00000000	          0.00000000	          0.00000000	          0.00000000	          0.00000000	          0.00000000	          0.00000000	          5.70693190	          0.00000000	          0.00000000	          0.00000000	          0.00000000	
          0.58400000	        116.17772508	        751.19882749	        -16.98905622	         -0.64054545	          0.00000000	          0.08966600	          0.00000000	          0.00000000	          0.00000000	          0.00000000	          0.00000000	          0.00000000	          0.00000000	          5.03332141	          0.00000000	          0.00000000	          0.00000000	          0.00000000	
          0.58800000	        120.36120272	        762.96500069	        -19.01982761	         -0.63942743	          0.00000000	          0.08935931	          0.00000000	          0.00000000	          0.00000000	          0.00000000	          0.00000000	          0.00000000	          0.00000000	          4.34884619	          0.00000000	          0.00000000	          0.00000000	          0.00000000	
          0.59200000	        124.81525345	        773.37704134	        -20.48103080	         -0.63829416	          0.00000000	          0.08904126	          0.00000000	          0.00000000	          0.00000000	          0.00000000	          0.00000000	          0.00000000	          0.00000000	          3.75874905	          0.00000000	          0.00000000	          0.00000000	          0.00000000	
